<svg width="40" height="40" viewBox="0 0 40 40" fill="none"
  xmlns="http://www.w3.org/2000/svg">
  <g clip-path="url(#clip0_1507_79705)">
    <path d="M29.0652 8.01025H28.0657V5.82646C29.4427 5.33995 30.2689 3.93151 30.0219 2.49205C29.7746 1.05221 28.5266 0 27.0658 0C25.6051 0 24.3571 1.05221 24.1099 2.49205C23.8629 3.9316 24.6891 5.33995 26.066 5.82646V8.01016H14.0697V5.82646C15.447 5.33995 16.2729 3.93151 16.0261 2.49205C15.7793 1.05221 14.5311 0 13.0703 0C11.6096 0 10.3612 1.05221 10.1145 2.49205C9.86742 3.9316 10.6933 5.33995 12.0705 5.82646V8.01016H11.0707C8.31156 8.01316 6.07537 10.2493 6.07237 13.0086V30.0032C6.07537 32.7629 8.31146 34.999 11.0707 35.0019H14.0698V39.0005C14.0699 39.1789 14.1178 39.3541 14.2084 39.5078C14.2991 39.6615 14.4292 39.7882 14.5853 39.8747C14.7413 39.9612 14.9176 40.0043 15.0959 39.9996C15.2742 39.9949 15.4481 39.9425 15.5993 39.848L23.3541 35.0019H29.0652C31.8249 34.9993 34.0614 32.7629 34.0639 30.0032V13.0085C34.0614 10.2492 31.8249 8.01278 29.0652 8.01025ZM15.0696 14.0084C16.7252 14.0103 18.0668 15.352 18.0687 17.0075C18.0687 17.5595 17.6213 18.0069 17.0689 18.0069C16.5168 18.0069 16.0694 17.5595 16.0694 17.0075C16.0694 16.4555 15.6218 16.0076 15.0696 16.0076C14.5176 16.0076 14.0698 16.4553 14.0698 17.0074C14.0698 17.5595 13.6225 18.0068 13.0703 18.0068C12.5182 18.0068 12.0705 17.5594 12.0705 17.0074C12.0724 15.3519 13.4141 14.0103 15.0696 14.0084ZM27.513 26.399C25.1863 27.4964 22.6402 28.0492 20.0679 28.0157C17.4958 28.0494 14.9499 27.4965 12.623 26.399C12.1291 26.1522 11.9293 25.5515 12.176 25.0576C12.4231 24.5637 13.0235 24.3635 13.5174 24.6105C17.2516 26.477 22.8855 26.477 26.619 24.6105C27.1129 24.3635 27.7132 24.5637 27.9603 25.0576C28.2071 25.5515 28.0069 26.1522 27.513 26.399ZM27.0659 18.0069C26.8009 18.0073 26.5464 17.9019 26.359 17.7144C26.1715 17.527 26.0661 17.2725 26.0661 17.0075C26.0661 16.4555 25.6188 16.0077 25.0667 16.0077C24.5145 16.0077 24.0668 16.4554 24.0668 17.0075C24.0668 17.5596 23.6195 18.0069 23.067 18.0069C22.515 18.0069 22.0676 17.5595 22.0676 17.0075C22.0676 15.3509 23.4101 14.0084 25.0667 14.0084C26.7229 14.0084 28.0657 15.3509 28.0657 17.0075C28.0657 17.2725 27.9608 17.527 27.7728 17.7144C27.5854 17.9019 27.331 18.0074 27.0659 18.0069ZM37.063 16.0076H36.0631V26.0048H37.063C38.7184 26.0029 40.0602 24.6612 40.062 23.0057V19.0066C40.0602 17.3512 38.7184 16.0094 37.063 16.0076ZM0.0742188 19.0066V23.0056C0.0760932 24.6611 1.41781 26.0028 3.0733 26.0047H4.07311V16.0076H3.0733C1.41781 16.0094 0.0760932 17.3512 0.0742188 19.0066Z" fill="#2563EB"/>
  </g>
  <defs>
    <clipPath id="clip0_1507_79705">
      <rect width="40" height="40" fill="white"/>
    </clipPath>
  </defs>
</svg>
